# xmcd
#
# Track frame offsets: 
#        150
#        16280
#        35690
#        54468
#        71093
#        91719
#        111498
#        133866
#        153125
#        170910
#        190563
#        217073
#        233966
#        251309
#        270194
#        291529
#        315327
#        339727
#        361504
#        379286
#
# Disc length: 5308 seconds
#
# Revision: 0
# Processed by: cddbd v1.4PL0 Copyright (c) Steve Scherf et al.
# Submitted via: ExactAudioCopy v0.95a3
#
DISCID=2514ba14
DTITLE=林忆莲 - DISC3
DYEAR=1900
DGENRE=
TTITLE0=最好的事
TTITLE1=让爱人去流浪
TTITLE2=IT‘S WASN’T MEANT TO BE
TTITLE3=重遇
TTITLE4=匆匆
TTITLE5=走在大街的女子
TTITLE6=依然
TTITLE7=一分钟都市，一分钟恋爱
TTITLE8=夜来香
TTITLE9=野花
TTITLE10=再生恋
TTITLE11=HELLO！寂寞
TTITLE12=你是我的男人
TTITLE13=天在地大
TTITLE14=醒醒
TTITLE15=情人
TTITLE16=对不起了爱
TTITLE17=两个人的路
TTITLE18=蔷薇之恋
TTITLE19=I SWEAR
EXTD=
EXTT0=
EXTT1=
EXTT2=
EXTT3=
EXTT4=
EXTT5=
EXTT6=
EXTT7=
EXTT8=
EXTT9=
EXTT10=
EXTT11=
EXTT12=
EXTT13=
EXTT14=
EXTT15=
EXTT16=
EXTT17=
EXTT18=
EXTT19=
PLAYORDER=
